<svg xmlns="http://www.w3.org/2000/svg" xmlns:xlink="http://www.w3.org/1999/xlink" width="200.979" height="45.354" viewBox="0 0 200.979 45.354">
  <defs>
    <clipPath id="clip-path">
      <path id="Path_2" data-name="Path 2" d="M0,17.009H200.978V-28.346H0Z" transform="translate(0 28.346)"/>
    </clipPath>
  </defs>
  <g id="Group_525" data-name="Group 525" transform="translate(0 28.346)">
    <g id="Group_2" data-name="Group 2" transform="translate(0 -28.346)" clip-path="url(#clip-path)">
      <g id="Group_1" data-name="Group 1" transform="translate(0 0)">
        <path id="Path_1" data-name="Path 1" d="M3.576,9.1a11.532,11.532,0,0,0-1.165,3.48,7.657,7.657,0,0,0,2.667-.61,8.718,8.718,0,0,0,2.56-1.882l8.371-8.315H9.561L6.284,5.321A18.562,18.562,0,0,0,3.576,9.1M2.52,16.97A10.576,10.576,0,0,1,2.3,14.64q0-.6.109-2.059a12.935,12.935,0,0,1-1.435.054H-1.409V-7.039h-4.55v36.55h4.55v-12.6H.976q1,0,1.544.054m3.262.813A11.743,11.743,0,0,0,2.52,16.97a11.573,11.573,0,0,0,1.314,3.317,23.442,23.442,0,0,0,2.64,3.563l4.875,5.661h6.312L8.505,19.758a7.535,7.535,0,0,0-2.723-1.976m29.4-12.515A13.8,13.8,0,0,1,39.736,6q-.785-4.9-5.146-4.9a6.481,6.481,0,0,0-4.9,2.126A13.752,13.752,0,0,0,26.653,8.6h-.107V1.774H21.832V29.511h4.714V9.249A6.109,6.109,0,0,1,28.32,7.326a10.191,10.191,0,0,1,3.006-1.49,12.575,12.575,0,0,1,3.859-.57M39.9,29.511h4.9V12.987a6.8,6.8,0,0,0-1.381-4.414A8.456,8.456,0,0,0,39.736,6,18.013,18.013,0,0,1,39.9,8.545ZM51.46-2.269h4.768V-7.037H51.46Zm0,31.78h4.768V1.774H51.46ZM64.7,24.675a6.99,6.99,0,0,0,2.979,1.232,10.116,10.116,0,0,1-.054-1.274V6.328h6.367V1.774H67.622V-7.039H62.746V19.19a10.805,10.805,0,0,0,.434,3.3A4.493,4.493,0,0,0,64.7,24.675m7.693,5.512a10.337,10.337,0,0,0,2-.189V26.178q-1.111.055-2.384.054a24.316,24.316,0,0,1-4.334-.325,4.9,4.9,0,0,0,1.234,3.224,4.817,4.817,0,0,0,3.48,1.056m21.7-24.812a13.316,13.316,0,0,1,4.714.786,6.587,6.587,0,0,0-1.747-3.832A5.034,5.034,0,0,0,93.464,1.1,6.628,6.628,0,0,0,88.371,3.3,13.726,13.726,0,0,0,85.364,8.87H85.31V-7.039H80.489v36.55H85.31V9.331A5.713,5.713,0,0,1,87.1,7.408a10.715,10.715,0,0,1,3.048-1.462,13.023,13.023,0,0,1,3.941-.57m4.875,24.135h4.875V13.042a6.746,6.746,0,0,0-1.366-4.374A8.046,8.046,0,0,0,98.8,6.161a15.732,15.732,0,0,1,.162,2.384Zm16.164-4.389a15.7,15.7,0,0,1-.163-2.382V1.774h-4.875V18.242a6.738,6.738,0,0,0,1.368,4.374,8.014,8.014,0,0,0,3.67,2.506m13.49,4.389h4.766V1.774h-4.766v20.18a5.745,5.745,0,0,1-1.787,1.923,10.756,10.756,0,0,1-3.048,1.461,12.988,12.988,0,0,1-3.941.57,13.275,13.275,0,0,1-4.714-.786,6.587,6.587,0,0,0,1.747,3.834,5.041,5.041,0,0,0,3.589,1.232,6.625,6.625,0,0,0,5.038-2.166,13.9,13.9,0,0,0,3.061-5.5h.054Zm25.8-24.405a14.072,14.072,0,0,1,5.282.947Q157.849,1.1,153.083,1.1a7,7,0,0,0-5.336,2.154,13.526,13.526,0,0,0-3.034,5.512h-.054v-15.8h-4.6v36.55h4.6V22.522h.054a13.515,13.515,0,0,0,3.034,5.512,7,7,0,0,0,5.336,2.154q4.769,0,6.61-4.957a14.04,14.04,0,0,1-5.282.947,15.64,15.64,0,0,1-4.523-.61,10.906,10.906,0,0,1-3.358-1.584,6.044,6.044,0,0,1-1.87-2.03V9.331a6.033,6.033,0,0,1,1.87-2.032,10.942,10.942,0,0,1,3.358-1.584,15.7,15.7,0,0,1,4.523-.61m10.157,16.564a9.95,9.95,0,0,0,1.843-6.189,9.394,9.394,0,0,0-1.856-5.987,10.638,10.638,0,0,0-4.863-3.44,27.018,27.018,0,0,1,1.326,9.482,28.224,28.224,0,0,1-1.326,9.7,10.676,10.676,0,0,0,4.875-3.562M183.885-.005h2.939V-4.221Zm6.8,0-.261,1.958H189.15V4.665h-2.326V1.953h-5.44V.291l5.528-7.714h2.238V-.005Zm-15.2,2.536h4.968L180.2,4.665h-8.378V2.827c.5-.442,1-.866,1.486-1.267s.984-.826,1.486-1.269.918-.822,1.286-1.171A8.4,8.4,0,0,0,177-1.895a4.014,4.014,0,0,0,.552-.971,2.934,2.934,0,0,0,.184-1.059,1.791,1.791,0,0,0-.429-1.232,1.483,1.483,0,0,0-1.163-.482,2.156,2.156,0,0,0-1.373.394,2.584,2.584,0,0,0-.744,1.5l-2.379-.28a7.2,7.2,0,0,1,.454-1.426,3.884,3.884,0,0,1,.814-1.189,3.623,3.623,0,0,1,1.3-.814,5.559,5.559,0,0,1,1.942-.3,4.3,4.3,0,0,1,3.078,1,3.561,3.561,0,0,1,1.05,2.71,4.73,4.73,0,0,1-.184,1.355,4.971,4.971,0,0,1-.552,1.216,7.476,7.476,0,0,1-.934,1.2q-.569.6-1.355,1.3c-.282.232-.563.466-.85.7s-.592.5-.918.8m19.525-3.848a13.85,13.85,0,0,0-13.851-13.85,13.85,13.85,0,0,0-13.851,13.85,13.852,13.852,0,0,0,13.851,13.851A13.852,13.852,0,0,0,195.019-1.317" transform="translate(5.959 15.167)"/>
      </g>
    </g>
  </g>
</svg>
