<svg xmlns="http://www.w3.org/2000/svg" xmlns:xlink="http://www.w3.org/1999/xlink" width="55.404" height="55.405" viewBox="0 0 55.404 55.405">
  <defs>
    <clipPath id="clip-path">
      <path id="Path_66" data-name="Path 66" d="M0-24.595H55.4V-80H0Z" transform="translate(0 80)"/>
    </clipPath>
  </defs>
  <g id="Group_89" data-name="Group 89" clip-path="url(#clip-path)">
    <g id="Group_48" data-name="Group 48" transform="translate(4.307 4.329)">
      <path id="Path_25" data-name="Path 25" d="M-10.378,0A23.384,23.384,0,0,0-33.757,23.388,23.383,23.383,0,0,0-10.369,46.767,23.383,23.383,0,0,0,13.01,23.383,23.386,23.386,0,0,0-10.378,0M10.29,16.915c-.315.073-.609.165-.882.251a3.6,3.6,0,0,1-1.959.247A2.685,2.685,0,0,1,6.675,17,3.373,3.373,0,0,0,5,16.315a2.322,2.322,0,0,0-1.9.822,2.283,2.283,0,0,0-.483,1.994,3.333,3.333,0,0,0,.353.829c.053.1.13.24.177.35a2.841,2.841,0,0,1-.384-.016,2.751,2.751,0,0,1-.546-.152,2.83,2.83,0,0,0-1.657-.2A2.009,2.009,0,0,0-.828,21.065,2.642,2.642,0,0,0-.742,23.3a3.719,3.719,0,0,0,2.22,1.863,4.568,4.568,0,0,1,.963.486.632.632,0,0,1,.071.057,3.435,3.435,0,0,1-.484.688c-.135.164-.264.323-.365.47-.2.293-.427.578-.666.879a8.6,8.6,0,0,0-1.485,2.38A8.733,8.733,0,0,0-.909,32.5a9.646,9.646,0,0,1-.212,1.556,3.469,3.469,0,0,1-.764,1.261,11.5,11.5,0,0,1-2.209,1.942c-.483.348-1.146.672-1.554.253A4.873,4.873,0,0,1-6.794,35.1a7.857,7.857,0,0,1-.12-1.348,7.308,7.308,0,0,0-.28-2.105,4.927,4.927,0,0,0-.326-.731,1.445,1.445,0,0,1-.25-.709,3.284,3.284,0,0,0-.941-2.925,4.831,4.831,0,0,0-3.829-.815,4.619,4.619,0,0,1-2.289-.648l-.217-.1c-1.326-.61-1.812-1.673-1.627-3.553A4.9,4.9,0,0,1-13.129,18.1c1.734-.44,3.434,0,5.473.608a18.6,18.6,0,0,0,3.387.339l.127.007a3.361,3.361,0,0,0,2.5-.7,1.985,1.985,0,0,0,.67-1.3,3.465,3.465,0,0,0-.869-2.779c-1.367-1.416-3.844-1.326-6.03-1.245a11.862,11.862,0,0,1-2.336-.048A2.389,2.389,0,0,1-10,12.6a3.135,3.135,0,0,1,.361-.2,2.762,2.762,0,0,0,.855-.589,4.119,4.119,0,0,0,.792-2.411v-.01c.065-.511,1.788-.787,3.171-.676a1.534,1.534,0,0,0,.246,0,1.8,1.8,0,0,0,1.353-.664A3.658,3.658,0,0,0-2.888,5.2l-.03-.18c-.177-1.036-.207-1.647.11-1.916a21.759,21.759,0,0,1,13.1,13.815M-22.784,5.653c.075.35.13.784.16,1.021.025.194.047.366.07.5a3.712,3.712,0,0,1,.008,1.763,2.583,2.583,0,0,1-1.544,1.414c-.152.072-.3.141-.452.21a7.768,7.768,0,0,0-2.963,2c-1.208,1.431-1.764,1.562-1.938,1.564-.028,0-.1,0-.227-.175a.85.85,0,0,0-.123-.136,21.8,21.8,0,0,1,7.011-8.158m-9.055,14.869c.63.028,2.893.214,2.979,1.425a16.672,16.672,0,0,0,.042,3.166,5.272,5.272,0,0,0,2.252,3.339c.84.72,1.566,1.341,1.632,2.227a3.881,3.881,0,0,1-.346,1.518,8.871,8.871,0,0,0-.362,1.171l-.019.091a5.318,5.318,0,0,0-.141,2.1,2.179,2.179,0,0,1-.2,1.7.971.971,0,0,1-.832.168h-.007a21.511,21.511,0,0,1-5-16.9m15.422,23.65a7.973,7.973,0,0,1,8.439.726,21.474,21.474,0,0,1-8.439-.726m10.616.371c-.011-.012-.019-.026-.03-.039-5.461-5.591-12.193-1.487-12.791-1.1a21.708,21.708,0,0,1-6.8-4.465,2.243,2.243,0,0,0,.678-.486,3.763,3.763,0,0,0,.648-3.2,3.8,3.8,0,0,1,.131-1.437l.019-.092a7.151,7.151,0,0,1,.3-.938,5.31,5.31,0,0,0,.443-2.237c-.119-1.6-1.241-2.566-2.231-3.414-.836-.716-1.557-1.335-1.658-2.221a14.931,14.931,0,0,1-.032-2.885.907.907,0,0,0,0-.1c-.057-1.8-1.7-2.957-4.417-3.128a21.472,21.472,0,0,1,1-3.308,1.908,1.908,0,0,0,1.033.356h.073c1.251,0,2.393-1.16,3.252-2.179a6.245,6.245,0,0,1,2.362-1.542c.155-.071.312-.143.468-.217A4.337,4.337,0,0,0-20.91,9.5a5.2,5.2,0,0,0,.064-2.621c-.019-.116-.038-.264-.059-.429a8.207,8.207,0,0,0-.364-1.774,21.492,21.492,0,0,1,8.126-2.766,4.136,4.136,0,0,1,.031.641v.13c0,.652-.013,1.1-.282,1.319a3.272,3.272,0,0,1-.892.436c-.2.075-.4.152-.585.238A8.439,8.439,0,0,0-17.441,6.3a1.633,1.633,0,0,0-.524,1.885.866.866,0,0,0,1.143.439.866.866,0,0,0,.494-.976c.039-.048.08-.093.124-.138a6.993,6.993,0,0,1,2.053-1.261c.154-.071.317-.132.479-.193a4.681,4.681,0,0,0,1.379-.72,3.162,3.162,0,0,0,.911-2.666V2.57a5.472,5.472,0,0,0-.042-.811c.346-.017.693-.027,1.042-.027a21.585,21.585,0,0,1,5.858.812,4.891,4.891,0,0,0-.106,2.762l.029.172c.183,1.107.091,1.4.025,1.479a.365.365,0,0,1-.125.021h-.025c-.873-.066-4.686-.223-4.989,2.188a1.4,1.4,0,0,0-.015.141,2.315,2.315,0,0,1-.353,1.344,2.484,2.484,0,0,1-.354.2,2.376,2.376,0,0,0-1.019.794,2.232,2.232,0,0,0-.33,2.219c.589,1.019,2.085.965,3.979.894,1.731-.064,3.889-.143,4.72.717A1.823,1.823,0,0,1-2.7,16.95a1.14,1.14,0,0,1-.1.12,1.859,1.859,0,0,1-1.252.252l-.132-.007a17.494,17.494,0,0,1-2.97-.267c-1.81-.543-4.061-1.222-6.4-.628A6.618,6.618,0,0,0-18.4,22c-.255,2.594.628,4.376,2.626,5.3l.212.1a6.074,6.074,0,0,0,3.2.8.945.945,0,0,0,.1-.013,3.233,3.233,0,0,1,2.391.389c.119.109.482.44.38,1.469a2.884,2.884,0,0,0,.436,1.678,3.541,3.541,0,0,1,.219.474,5.986,5.986,0,0,1,.194,1.622,9.154,9.154,0,0,0,.158,1.655,6.547,6.547,0,0,0,1.6,3.249,2.306,2.306,0,0,0,1.693.726,3.7,3.7,0,0,0,2.114-.781A13.03,13.03,0,0,0-.54,36.4a5.048,5.048,0,0,0,1.1-1.929,10.906,10.906,0,0,0,.259-1.839,7.356,7.356,0,0,1,.321-1.914,7.212,7.212,0,0,1,1.217-1.9c.245-.31.5-.632.733-.972.077-.111.175-.229.278-.353a2.783,2.783,0,0,0,.874-2.032,1.777,1.777,0,0,0-.791-1.22,6.016,6.016,0,0,0-1.317-.681A2.042,2.042,0,0,1,.807,22.53a.936.936,0,0,1-.062-.736.282.282,0,0,1,.221-.166,1.631,1.631,0,0,1,.679.15,4.062,4.062,0,0,0,.95.24,2.185,2.185,0,0,0,1.925-.551,1.923,1.923,0,0,0-.03-2.333,2.487,2.487,0,0,1-.188-.392.565.565,0,0,1,.122-.492.554.554,0,0,1,.481-.207,2.128,2.128,0,0,1,.819.407,4.007,4.007,0,0,0,1.363.656,5.194,5.194,0,0,0,2.847-.29c.274-.087.539-.168.8-.226A21.628,21.628,0,0,1-5.544,44.486c-.085.019-.17.039-.256.057" transform="translate(33.757 0)"/>
    </g>
    <g id="Group_49" data-name="Group 49" transform="translate(41.215 33.243)">
      <path id="Path_26" data-name="Path 26" d="M-1.111-.1A.865.865,0,0,0-1.217,1.05a2.794,2.794,0,0,1-.45,1.417,2.966,2.966,0,0,1-1.066,1.2.888.888,0,0,0-.88.852.866.866,0,0,0,.852.881h.024c1.029,0,2-1.069,2.576-2.074C.465,2.221.865.755.113-.056A.866.866,0,0,0-1.11-.1h0" transform="translate(3.613 0.334)"/>
    </g>
    <g id="Group_50" data-name="Group 50" transform="translate(17.24 1.461)">
      <path id="Path_27" data-name="Path 27" d="M-.385-.9a3.645,3.645,0,0,0,1.1-.341.867.867,0,0,0,.534-1.1.866.866,0,0,0-1.1-.535q-.423.146-.839.305a.866.866,0,0,0-.5,1.118h0A.88.88,0,0,0-.385-.9" transform="translate(1.251 2.925)"/>
    </g>
    <g id="Group_51" data-name="Group 51" transform="translate(13.341 3.195)">
      <path id="Path_28" data-name="Path 28" d="M-.387-.947a2.6,2.6,0,0,0,1.164-.5.866.866,0,0,0,.35-1.173A.866.866,0,0,0-.046-2.976q-.394.212-.778.436a.85.85,0,0,0-.328,1.157.851.851,0,0,0,.765.436" transform="translate(1.26 3.08)"/>
    </g>
    <g id="Group_52" data-name="Group 52" transform="translate(21.387 0.387)">
      <path id="Path_29" data-name="Path 29" d="M-.384-.84c.057,0,.723-.125,1-.173a.867.867,0,0,0,.706-1,.867.867,0,0,0-1-.705q-.44.078-.876.166a.866.866,0,0,0-.674,1.022A.866.866,0,0,0-.384-.84" transform="translate(1.25 2.734)"/>
    </g>
    <g id="Group_53" data-name="Group 53" transform="translate(0.73 19.626)">
      <path id="Path_30" data-name="Path 30" d="M-.293-1.13A.875.875,0,0,0,.753-1.767q.1-.407.212-.81a.866.866,0,0,0-.6-1.067.866.866,0,0,0-1.067.6q-.119.43-.226.864A.867.867,0,0,0-.293-1.13" transform="translate(0.955 3.675)"/>
    </g>
    <g id="Group_54" data-name="Group 54" transform="translate(0.049 23.867)">
      <path id="Path_31" data-name="Path 31" d="M-.355-1.15a.874.874,0,0,0,.931-.8q.032-.419.078-.833a.866.866,0,0,0-.765-.956.865.865,0,0,0-.956.765q-.049.443-.084.89a.865.865,0,0,0,.8.93" transform="translate(1.154 3.741)"/>
    </g>
    <g id="Group_55" data-name="Group 55" transform="translate(2.091 15.571)">
      <path id="Path_32" data-name="Path 32" d="M-.234-1.09A.873.873,0,0,0,.9-1.548q.164-.387.34-.765a.866.866,0,0,0-.421-1.15.867.867,0,0,0-1.15.42q-.188.4-.363.819A.866.866,0,0,0-.234-1.09Z" transform="translate(0.762 3.545)"/>
    </g>
    <g id="Group_56" data-name="Group 56" transform="translate(4.097 11.81)">
      <path id="Path_33" data-name="Path 33" d="M-.179-1.03A.873.873,0,0,0,1.016-1.3c.15-.237.3-.47.459-.7a.867.867,0,0,0-.234-1.2.866.866,0,0,0-1.2.231c-.166.247-.33.5-.488.748A.866.866,0,0,0-.18-1.03h0" transform="translate(0.583 3.352)"/>
    </g>
    <g id="Group_57" data-name="Group 57" transform="translate(9.8 5.542)">
      <path id="Path_34" data-name="Path 34" d="M-.385-1A.982.982,0,0,0,.2-1.212c.206-.163.409-.33.618-.49A.866.866,0,0,0,.976-2.917.865.865,0,0,0-.236-3.075q-.353.272-.7.555A.866.866,0,0,0-1.055-1.3h0a.831.831,0,0,0,.67.3" transform="translate(1.251 3.254)"/>
    </g>
    <g id="Group_58" data-name="Group 58" transform="translate(6.69 8.438)">
      <path id="Path_35" data-name="Path 35" d="M-.384-1.049c.551,0,.875-.545,1.214-.9A.866.866,0,0,0,.794-3.177a.866.866,0,0,0-1.224.035q-.306.325-.6.66A.867.867,0,0,0-.957-1.258a.856.856,0,0,0,.573.209" transform="translate(1.25 3.413)"/>
    </g>
    <g id="Group_59" data-name="Group 59" transform="translate(25.675 0)">
      <path id="Path_36" data-name="Path 36" d="M-.384-.779C-.373-.779.209-.8.489-.8a.867.867,0,0,0,.855-.877.866.866,0,0,0-.873-.855q-.447.005-.891.024a.866.866,0,0,0-.83.9.866.866,0,0,0,.865.83" transform="translate(1.25 2.534)"/>
    </g>
    <g id="Group_60" data-name="Group 60" transform="translate(48.243 10.658)">
      <path id="Path_37" data-name="Path 37" d="M-.3-.917A.877.877,0,0,0,.91-.711a.866.866,0,0,0,.206-1.206h0Q.859-2.281.589-2.637a.867.867,0,0,0-1.213-.17.867.867,0,0,0-.17,1.213h0q.252.335.494.675" transform="translate(0.968 2.981)"/>
    </g>
    <g id="Group_61" data-name="Group 61" transform="translate(52.27 18.263)">
      <path id="Path_38" data-name="Path 38" d="M-.02-.508q.133.4.255.8a.877.877,0,0,0,1.08.578A.865.865,0,0,0,1.892-.211h0q-.13-.427-.271-.848a.867.867,0,0,0-1.1-.547.866.866,0,0,0-.547,1.1v0" transform="translate(0.066 1.652)"/>
    </g>
    <g id="Group_62" data-name="Group 62" transform="translate(50.565 14.298)">
      <path id="Path_39" data-name="Path 39" d="M-.213-.895A.877.877,0,0,0,.945-.5a.865.865,0,0,0,.4-1.157h0q-.2-.4-.4-.794a.866.866,0,0,0-1.171-.36A.866.866,0,0,0-.592-1.638q.2.368.379.743" transform="translate(0.693 2.91)"/>
    </g>
    <g id="Group_63" data-name="Group 63" transform="translate(53.315 22.455)">
      <path id="Path_40" data-name="Path 40" d="M-.322,0a.866.866,0,0,0-.715.994h0q.068.412.122.828a.867.867,0,0,0,.858.754A.889.889,0,0,0,.808,1.66c0-.023,0-.046,0-.068C.774,1.295.721,1,.672.71A.867.867,0,0,0-.322,0" transform="translate(1.048 0.016)"/>
    </g>
    <g id="Group_64" data-name="Group 64" transform="translate(29.991 0.183)">
      <path id="Path_41" data-name="Path 41" d="M-.339-.766c.278.033.917.121.961.121a.866.866,0,0,0,.864-.867.866.866,0,0,0-.738-.855q-.439-.066-.884-.119a.866.866,0,0,0-.962.758.866.866,0,0,0,.758.962" transform="translate(1.104 2.493)"/>
    </g>
    <g id="Group_65" data-name="Group 65" transform="translate(34.221 1.031)">
      <path id="Path_42" data-name="Path 42" d="M-.281-.755q.4.115.8.242a.866.866,0,0,0,1.091-.557A.866.866,0,0,0,1.053-2.16h0Q.626-2.3.2-2.421A.866.866,0,0,0-.88-1.833.867.867,0,0,0-.292-.758l.01,0" transform="translate(0.915 2.456)"/>
    </g>
    <g id="Group_66" data-name="Group 66" transform="translate(45.37 7.434)">
      <path id="Path_43" data-name="Path 43" d="M-.383-.924A.877.877,0,0,0,.842-.911.866.866,0,0,0,.854-2.136h0Q.542-2.455.219-2.764a.866.866,0,0,0-1.224.027A.866.866,0,0,0-.979-1.512h0c.2.193.4.389.595.588" transform="translate(1.246 3.004)"/>
    </g>
    <g id="Group_67" data-name="Group 67" transform="translate(38.27 2.555)">
      <path id="Path_44" data-name="Path 44" d="M-.22-.732q.38.179.754.371A.874.874,0,0,0,1.7-.739.865.865,0,0,0,1.323-1.9h0q-.4-.2-.8-.4a.867.867,0,0,0-1.154.413A.866.866,0,0,0-.22-.732" transform="translate(0.717 2.382)"/>
    </g>
    <g id="Group_68" data-name="Group 68" transform="translate(42.016 4.708)">
      <path id="Path_45" data-name="Path 45" d="M-.167-.7q.346.237.684.486A.875.875,0,0,0,1.728-.4a.865.865,0,0,0-.185-1.209h0q-.359-.264-.726-.517a.866.866,0,0,0-1.205.22A.866.866,0,0,0-.171-.7l0,0" transform="translate(0.544 2.282)"/>
    </g>
    <g id="Group_69" data-name="Group 69" transform="translate(47.758 42.975)">
      <path id="Path_46" data-name="Path 46" d="M-.851-.077A.868.868,0,0,0-2.065.095q-.251.336-.515.662a.867.867,0,0,0,.136,1.218.867.867,0,0,0,1.215-.133q.279-.349.549-.705A.867.867,0,0,0-.851-.077" transform="translate(2.769 0.25)"/>
    </g>
    <g id="Group_70" data-name="Group 70" transform="translate(29.214 53.498)">
      <path id="Path_47" data-name="Path 47" d="M-.72,0q-.414.051-.832.087a.866.866,0,0,0-.787.939.866.866,0,0,0,.862.79c.026,0,.671-.06.966-.1A.866.866,0,0,0,.251.757.866.866,0,0,0-.708,0H-.72" transform="translate(2.342 0.01)"/>
    </g>
    <g id="Group_71" data-name="Group 71" transform="translate(41.361 48.943)">
      <path id="Path_48" data-name="Path 48" d="M-.484-.067C-.714.092-.945.246-1.179.4a.865.865,0,0,0-.259,1.2h0a.875.875,0,0,0,1.2.258q.375-.242.742-.5A.866.866,0,0,0,.713.15a.866.866,0,0,0-1.2-.217" transform="translate(1.576 0.218)"/>
    </g>
    <g id="Group_72" data-name="Group 72" transform="translate(33.473 52.635)">
      <path id="Path_49" data-name="Path 49" d="M-.648-.015c-.267.078-.537.151-.808.22a.865.865,0,0,0-.625,1.053.866.866,0,0,0,.839.652c.071,0,.791-.179,1.076-.262A.865.865,0,0,0,.425.576.866.866,0,0,0-.648-.015" transform="translate(2.108 0.05)"/>
    </g>
    <g id="Group_73" data-name="Group 73" transform="translate(44.789 46.208)">
      <path id="Path_50" data-name="Path 50" d="M-.4-.107q-.3.289-.613.57a.865.865,0,0,0-.064,1.222h0a.876.876,0,0,0,1.224.063Q.48,1.45.8,1.141A.866.866,0,1,0-.4-.107" transform="translate(1.298 0.349)"/>
    </g>
    <g id="Group_74" data-name="Group 74" transform="translate(37.559 51.102)">
      <path id="Path_51" data-name="Path 51" d="M-.567-.037q-.376.179-.758.346a.866.866,0,0,0-.448,1.14h0A.875.875,0,0,0-.633,1.9q.408-.178.811-.37A.865.865,0,0,0,.586.372.866.866,0,0,0-.567-.037" transform="translate(1.846 0.121)"/>
    </g>
    <g id="Group_75" data-name="Group 75" transform="translate(53.178 31.151)">
      <path id="Path_52" data-name="Path 52" d="M-.513,0a.866.866,0,0,0-.993.717h0q-.066.413-.146.823A.867.867,0,0,0-.966,2.551.867.867,0,0,0,.048,1.867C.1,1.576.157,1.283.2.988A.866.866,0,0,0-.513,0" transform="translate(1.668 0.016)"/>
    </g>
    <g id="Group_76" data-name="Group 76" transform="translate(53.659 26.753)">
      <path id="Path_53" data-name="Path 53" d="M-.775-.387a.866.866,0,0,0-.86-.872.866.866,0,0,0-.872.86v.012s0,.647-.013.925a.867.867,0,0,0,.839.892A.827.827,0,0,0-.791.672a.773.773,0,0,0,0-.08c.013-.3.014-.979.014-.979" transform="translate(2.521 1.259)"/>
    </g>
    <g id="Group_77" data-name="Group 77" transform="translate(52.01 35.348)">
      <path id="Path_54" data-name="Path 54" d="M-.634-.02a.87.87,0,0,0-1.1.547q-.133.4-.278.792A.867.867,0,0,0-1.5,2.434.866.866,0,0,0-.384,1.922c.1-.28.2-.561.3-.845A.867.867,0,0,0-.634-.02" transform="translate(2.063 0.063)"/>
    </g>
    <g id="Group_78" data-name="Group 78" transform="translate(0 28.184)">
      <path id="Path_55" data-name="Path 55" d="M-.441-1.151a.867.867,0,0,0,.793-.934C.33-2.361.311-2.64.3-2.92a.866.866,0,0,0-.907-.823.866.866,0,0,0-.824.907h0q.022.449.058.891a.878.878,0,0,0,.934.794" transform="translate(1.433 3.744)"/>
    </g>
    <g id="Group_79" data-name="Group 79" transform="translate(50.186 39.324)">
      <path id="Path_56" data-name="Path 56" d="M-.748-.044a.867.867,0,0,0-1.17.364q-.2.372-.4.738a.866.866,0,0,0,.328,1.18A.866.866,0,0,0-.812,1.91q.219-.387.429-.784A.867.867,0,0,0-.748-.044" transform="translate(2.433 0.144)"/>
    </g>
    <g id="Group_80" data-name="Group 80" transform="translate(3.683 40.481)">
      <path id="Path_57" data-name="Path 57" d="M-.716-.19A.867.867,0,0,0-1.9-.5.867.867,0,0,0-2.21.687l0,0q.226.384.465.76a.876.876,0,0,0,1.2.267A.865.865,0,0,0-.28.523h0Q-.5.17-.716-.19" transform="translate(2.329 0.618)"/>
    </g>
    <g id="Group_81" data-name="Group 81" transform="translate(1.795 36.603)">
      <path id="Path_58" data-name="Path 58" d="M-.883-.588Q-1.047-.971-1.2-1.36a.866.866,0,0,0-1.121-.493A.867.867,0,0,0-2.814-.731a0,0,0,0,1,0,0q.163.413.337.823A.877.877,0,0,0-1.339.549.865.865,0,0,0-.883-.587h0" transform="translate(2.873 1.912)"/>
    </g>
    <g id="Group_82" data-name="Group 82" transform="translate(0.557 32.467)">
      <path id="Path_59" data-name="Path 59" d="M-.844-.666q-.1-.4-.188-.815a.866.866,0,0,0-1.028-.667.867.867,0,0,0-.667,1.028q.093.438.2.869A.867.867,0,0,0-1.479.385.866.866,0,0,0-.843-.662s0,0,0,0" transform="translate(2.745 2.168)"/>
    </g>
    <g id="Group_83" data-name="Group 83" transform="translate(6.17 44.01)">
      <path id="Path_60" data-name="Path 60" d="M-.68-.139A.866.866,0,0,0-1.9-.253.866.866,0,0,0-2.014.967l0,0q.286.343.582.677a.877.877,0,0,0,1.223.071A.866.866,0,0,0-.135.5h0Q-.413.183-.68-.139" transform="translate(2.213 0.452)"/>
    </g>
    <g id="Group_84" data-name="Group 84" transform="translate(20.623 52.975)">
      <path id="Path_61" data-name="Path 61" d="M-.836-.09q-.41-.082-.817-.179A.867.867,0,0,0-2.7.373a.866.866,0,0,0,.641,1.044h0c.289.069.989.208,1.046.208A.866.866,0,0,0-.142.759.866.866,0,0,0-.836-.09" transform="translate(2.72 0.292)"/>
    </g>
    <g id="Group_85" data-name="Group 85" transform="translate(9.193 47.099)">
      <path id="Path_62" data-name="Path 62" d="M-.921-.334Q-1.245-.6-1.561-.875a.866.866,0,0,0-1.222.087A.866.866,0,0,0-2.7.433q.337.293.683.576A.875.875,0,0,0-.8.884.864.864,0,0,0-.92-.333h0" transform="translate(2.995 1.086)"/>
    </g>
    <g id="Group_86" data-name="Group 86" transform="translate(24.894 53.625)">
      <path id="Path_63" data-name="Path 63" d="M-.783-.022c-.28-.012-.559-.026-.837-.046a.866.866,0,0,0-.926.8.867.867,0,0,0,.8.926h0c.3.021.914.05.925.05A.866.866,0,0,0,.048.843.866.866,0,0,0-.783-.022" transform="translate(2.548 0.07)"/>
    </g>
    <g id="Group_87" data-name="Group 87" transform="translate(16.511 51.643)">
      <path id="Path_64" data-name="Path 64" d="M-.878-.167q-.393-.149-.778-.31A.866.866,0,0,0-2.79-.011a.866.866,0,0,0,.465,1.133q.413.172.833.332A.866.866,0,0,0-.375.947a.866.866,0,0,0-.5-1.114" transform="translate(2.857 0.544)"/>
    </g>
    <g id="Group_88" data-name="Group 88" transform="translate(12.667 49.666)">
      <path id="Path_65" data-name="Path 65" d="M-.907-.249q-.364-.209-.72-.431A.866.866,0,0,0-2.819-.4.866.866,0,0,0-2.541.79h0q.379.236.766.46A.867.867,0,0,0-.59.934.866.866,0,0,0-.907-.249" transform="translate(2.95 0.811)"/>
    </g>
  </g>
</svg>
