<svg xmlns="http://www.w3.org/2000/svg" xmlns:xlink="http://www.w3.org/1999/xlink" width="31.313" height="26.588" viewBox="0 0 31.313 26.588">
  <defs>
    <clipPath id="clip-path">
      <rect id="Rectangle_263" data-name="Rectangle 263" width="31.313" height="26.588" fill="#fff"/>
    </clipPath>
  </defs>
  <g id="Group_558" data-name="Group 558" transform="translate(0 0)">
    <g id="Group_557" data-name="Group 557" transform="translate(0 0)" clip-path="url(#clip-path)">
      <path id="Path_280" data-name="Path 280" d="M24.947,26.588a1.488,1.488,0,0,1-.631-.14l-7.731-3.639H11.09A11.263,11.263,0,0,1,0,11.4,11.263,11.263,0,0,1,11.09,0h9.133a11.263,11.263,0,0,1,11.09,11.4,10.717,10.717,0,0,1-4.05,8.549l-.85,5.383a1.481,1.481,0,0,1-1.467,1.251M11.09,1.393A9.753,9.753,0,0,0,1.393,11.4a9.752,9.752,0,0,0,9.7,10.011h5.651a.7.7,0,0,1,.3.066l7.871,3.7a.089.089,0,0,0,.083,0,.088.088,0,0,0,.046-.065l.894-5.658a.7.7,0,0,1,.274-.451A9.323,9.323,0,0,0,29.92,11.4a9.753,9.753,0,0,0-9.7-10.012Z" transform="translate(0 0)" fill="#fff"/>
      <path id="Path_281" data-name="Path 281" d="M10.938,17.246a.984.984,0,1,1,.984.984.983.983,0,0,1-.984-.984" transform="translate(-3.319 -4.934)" fill="#fff"/>
      <path id="Path_282" data-name="Path 282" d="M20.393,17.246a.984.984,0,1,1,.984.984.983.983,0,0,1-.984-.984" transform="translate(-6.188 -4.934)" fill="#fff"/>
      <path id="Path_283" data-name="Path 283" d="M29.848,17.246a.984.984,0,1,1,.984.984.983.983,0,0,1-.984-.984" transform="translate(-9.057 -4.934)" fill="#fff"/>
    </g>
  </g>
</svg>
