<svg id="Group_23" data-name="Group 23" xmlns="http://www.w3.org/2000/svg" xmlns:xlink="http://www.w3.org/1999/xlink" width="32.572" height="19" viewBox="0 0 32.572 19">
  <defs>
    <clipPath id="clip-path">
      <rect id="Rectangle_20" data-name="Rectangle 20" width="32.572" height="19" fill="#fff"/>
    </clipPath>
  </defs>
  <g id="Group_22" data-name="Group 22" clip-path="url(#clip-path)">
    <path id="Path_14" data-name="Path 14" d="M171.35,234.665a.678.678,0,1,0,.679.678.677.677,0,0,0-.679-.678" transform="translate(-159.814 -219.736)" fill="#fff"/>
    <path id="Path_15" data-name="Path 15" d="M32.572,9.5,27.123,4.075l-4.013,0H23.07V1.357A1.357,1.357,0,0,0,21.713,0H6.787A1.357,1.357,0,0,0,5.43,1.357H.679a.678.678,0,1,0,0,1.357H5.43V5.429H2.036a.678.678,0,0,0,0,1.357H5.429V9.5H3.394a.678.678,0,1,0,0,1.357H5.429v2.714H4.75a.679.679,0,0,0,0,1.358h.679a1.357,1.357,0,0,0,1.357,1.357H8.211a3.393,3.393,0,0,0,6.649,0h8.958a3.393,3.393,0,0,0,6.649,0h2.09ZM11.535,17.642a2.036,2.036,0,1,1,2.036-2.036,2.037,2.037,0,0,1-2.036,2.036m10.177-2.714H14.86a3.393,3.393,0,0,0-6.649,0H6.786V1.357H21.713Zm5.43,2.714a2.036,2.036,0,1,1,2.036-2.036,2.038,2.038,0,0,1-2.036,2.036M31.2,14.929h-.737a3.393,3.393,0,0,0-6.649,0h-.749v-9.5h.039l3.454,0,4.651,4.631Z" fill="#fff"/>
    <path id="Path_16" data-name="Path 16" d="M416.678,234.665a.678.678,0,1,0,.679.678.677.677,0,0,0-.679-.678" transform="translate(-389.536 -219.736)" fill="#fff"/>
  </g>
</svg>
