<svg xmlns="http://www.w3.org/2000/svg" xmlns:xlink="http://www.w3.org/1999/xlink" width="19.267" height="19.266" viewBox="0 0 19.267 19.266">
  <defs>
    <clipPath id="clip-path">
      <path id="Path_13" data-name="Path 13" d="M0,7.927H19.266V-11.339H0Z" transform="translate(0 11.339)" fill="#fff"/>
    </clipPath>
  </defs>
  <g id="Group_19" data-name="Group 19" clip-path="url(#clip-path)">
    <g id="Group_18" data-name="Group 18" transform="translate(0 0.001)">
      <path id="Path_12" data-name="Path 12" d="M.024,2.329C-.024,3.357-.034,3.685-.034,6.3s.01,2.945.058,3.973a7.057,7.057,0,0,0,.449,2.338,4.7,4.7,0,0,0,1.11,1.706,4.743,4.743,0,0,0,1.708,1.111,7.082,7.082,0,0,0,2.338.449c1.026.046,1.354.058,3.971.058s2.945-.012,3.973-.058a7.1,7.1,0,0,0,2.338-.449,4.928,4.928,0,0,0,2.817-2.817,7.062,7.062,0,0,0,.447-2.338c.048-1.028.059-1.356.059-3.973s-.012-2.943-.059-3.971a7.053,7.053,0,0,0-.447-2.338,4.723,4.723,0,0,0-1.111-1.706,4.7,4.7,0,0,0-1.706-1.111,7.1,7.1,0,0,0-2.338-.449c-1.028-.046-1.356-.058-3.973-.058s-2.945.012-3.971.058a7.082,7.082,0,0,0-2.338.449A4.721,4.721,0,0,0,1.582-1.714,4.7,4.7,0,0,0,.472-.009,7.048,7.048,0,0,0,.024,2.329M1.7,6.3c0-2.571.01-2.877.056-3.891A5.343,5.343,0,0,1,2.09.62,2.945,2.945,0,0,1,2.81-.488a2.986,2.986,0,0,1,1.108-.72,5.3,5.3,0,0,1,1.787-.331C6.722-1.587,7.026-1.6,9.6-1.6s2.877.008,3.893.056a5.31,5.31,0,0,1,1.789.331,3.014,3.014,0,0,1,1.108.72A2.986,2.986,0,0,1,17.108.62a5.355,5.355,0,0,1,.331,1.789c.046,1.014.056,1.32.056,3.891s-.01,2.877-.056,3.893a5.355,5.355,0,0,1-.331,1.789A3.187,3.187,0,0,1,15.28,13.81a5.31,5.31,0,0,1-1.789.331c-1.016.046-1.32.056-3.893.056s-2.877-.01-3.893-.056a5.3,5.3,0,0,1-1.787-.331,2.986,2.986,0,0,1-1.108-.72,2.958,2.958,0,0,1-.72-1.108,5.343,5.343,0,0,1-.333-1.789C1.711,9.177,1.7,8.873,1.7,6.3m2.951,0A4.946,4.946,0,1,0,9.6,1.354,4.947,4.947,0,0,0,4.652,6.3m1.735,0A3.211,3.211,0,1,1,9.6,9.512,3.212,3.212,0,0,1,6.387,6.3m8.355-3.986a1.155,1.155,0,1,0-1.157-1.155,1.156,1.156,0,0,0,1.157,1.155" transform="translate(0.034 3.332)" fill="#fff"/>
    </g>
  </g>
</svg>
