<svg xmlns="http://www.w3.org/2000/svg" xmlns:xlink="http://www.w3.org/1999/xlink" width="19.267" height="19.266" viewBox="0 0 19.267 19.266">
  <defs>
    <clipPath id="clip-path">
      <path id="Path_7" data-name="Path 7" d="M0,7.927H19.266V-11.339H0Z" transform="translate(0 11.339)" fill="#fff"/>
    </clipPath>
  </defs>
  <g id="Group_10" data-name="Group 10" clip-path="url(#clip-path)">
    <g id="Group_9" data-name="Group 9" transform="translate(-0.001 0)">
      <path id="Path_6" data-name="Path 6" d="M7.927,7.238V-8.678a1.641,1.641,0,0,0-1.675-1.675H-9.664a1.641,1.641,0,0,0-1.675,1.675V7.238A1.641,1.641,0,0,0-9.664,8.913H6.252A1.641,1.641,0,0,0,7.927,7.238M-7.907-2.87h2.659V5.7H-7.907Zm2.868-2.724A1.552,1.552,0,0,1-6.578-4.039,1.553,1.553,0,0,1-8.119-5.594,1.541,1.541,0,0,1-6.578-7.133,1.54,1.54,0,0,1-5.039-5.594M4.707,5.693H2.052V1.524c0-.992-.02-2.267-1.383-2.267C-.714-.743-.925.336-.925,1.452V5.693H-3.583V-2.87h2.552V-1.7h.037A2.791,2.791,0,0,1,1.522-3.086c2.691,0,3.186,1.774,3.186,4.074Z" transform="translate(11.339 10.353)" fill="#fff"/>
    </g>
  </g>
</svg>
