  <svg xmlns="http://www.w3.org/2000/svg" xmlns:xlink="http://www.w3.org/1999/xlink" width="24.189" height="17.278" viewBox="0 0 24.189 17.278">
  <defs>
    <clipPath id="clip-path">
      <rect id="Rectangle_21" data-name="Rectangle 21" width="24.189" height="17.278" fill="#fff"/>
    </clipPath>
  </defs>
  <g id="Group_26" data-name="Group 26" clip-path="url(#clip-path)">
    <path id="Path_17" data-name="Path 17" d="M12.19,9.2a2.585,2.585,0,0,1-1.479-.469L1.072,2.065A.864.864,0,0,1,2.055.644L11.7,7.313a.855.855,0,0,0,.985,0L22.323.644a.864.864,0,1,1,.984,1.42L13.666,8.733A2.579,2.579,0,0,1,12.19,9.2" transform="translate(-0.095 -0.067)" fill="#fff"/>
    <path id="Path_18" data-name="Path 18" d="M21.6,17.278H2.592A2.6,2.6,0,0,1,0,14.686V2.592A2.6,2.6,0,0,1,2.592,0H21.6a2.6,2.6,0,0,1,2.592,2.592V14.686A2.6,2.6,0,0,1,21.6,17.278M2.592,1.728a.865.865,0,0,0-.864.864V14.686a.865.865,0,0,0,.864.864H21.6a.865.865,0,0,0,.864-.864V2.592a.865.865,0,0,0-.864-.864Z" fill="#fff"/>
  </g>
</svg>
