<svg xmlns="http://www.w3.org/2000/svg" width="15.26" height="18.437" viewBox="0 0 15.26 18.437">
  <path id="shopping-bag" d="M33.256,17.667,32.134,5.173a.662.662,0,0,0-.659-.6H29.161V3.527a3.527,3.527,0,1,0-7.053,0V4.57H19.793a.662.662,0,0,0-.659.6L18.008,17.716a.662.662,0,0,0,.659.721H32.6a.662.662,0,0,0,.662-.662A.674.674,0,0,0,33.256,17.667ZM23.432,3.527a2.2,2.2,0,1,1,4.406,0V4.57H23.432ZM19.391,17.114,20.4,5.894h1.71V7.077a.662.662,0,1,0,1.324,0V5.894h4.406V7.077a.662.662,0,0,0,1.324,0V5.894H30.87l1.007,11.22H19.391Z" transform="translate(-18.005)"/>
</svg>
