<svg xmlns="http://www.w3.org/2000/svg" xmlns:xlink="http://www.w3.org/1999/xlink" width="24.161" height="19.266" viewBox="0 0 24.161 19.266">
  <defs>
    <clipPath id="clip-path">
      <path id="Path_9" data-name="Path 9" d="M0,8.636H24.162V-10.63H0Z" transform="translate(0 10.63)" fill="#fff"/>
    </clipPath>
  </defs>
  <g id="Group_13" data-name="Group 13" clip-path="url(#clip-path)">
    <g id="Group_12" data-name="Group 12" transform="translate(0 0.001)">
      <path id="Path_8" data-name="Path 8" d="M10.831,1.021a9.99,9.99,0,0,1-2.846.768A4.923,4.923,0,0,0,10.167-.9,10,10,0,0,1,7.01.276,4.99,4.99,0,0,0,3.4-1.257,4.912,4.912,0,0,0-1.557,3.606a5.062,5.062,0,0,0,.127,1.109A14.164,14.164,0,0,1-11.649-.369a4.772,4.772,0,0,0-.672,2.449,4.833,4.833,0,0,0,2.206,4.044,4.924,4.924,0,0,1-2.24-.607v.06a4.9,4.9,0,0,0,3.973,4.776,5.16,5.16,0,0,1-1.3.165,5.029,5.029,0,0,1-.935-.085,4.959,4.959,0,0,0,4.629,3.38,10.075,10.075,0,0,1-6.157,2.077,10.627,10.627,0,0,1-1.18-.065,14.21,14.21,0,0,0,7.6,2.184A13.865,13.865,0,0,0,8.367,4.171l-.014-.631a9.859,9.859,0,0,0,2.478-2.519" transform="translate(13.331 1.257)" fill="#fff"/>
    </g>
  </g>
</svg>
