<svg xmlns="http://www.w3.org/2000/svg" xmlns:xlink="http://www.w3.org/1999/xlink" width="16.362" height="19.167" viewBox="0 0 16.362 19.167">
  <defs>
    <clipPath id="clip-path">
      <rect id="Rectangle_235" data-name="Rectangle 235" width="16.362" height="19.167"/>
    </clipPath>
  </defs>
  <g id="Group_476" data-name="Group 476" clip-path="url(#clip-path)">
    <path id="Path_266" data-name="Path 266" d="M16.362,18.465a.7.7,0,0,1-1.4,0,6.778,6.778,0,1,0-13.557,0,.7.7,0,0,1-1.4,0,8.181,8.181,0,1,1,16.362,0M8.181,9.817a4.909,4.909,0,1,1,4.909-4.909A4.909,4.909,0,0,1,8.181,9.817m0-1.4A3.506,3.506,0,1,0,4.675,4.909,3.506,3.506,0,0,0,8.181,8.415"/>
  </g>
</svg>
