<svg xmlns="http://www.w3.org/2000/svg" width="52.886" height="52.886" viewBox="0 0 52.886 52.886">
  <g id="Group_491" data-name="Group 491" transform="translate(-1027.813 -1288.3)">
    <path id="Path_269" data-name="Path 269" d="M95.846-.027a26.242,26.242,0,1,0,26.607,25.873A26.286,26.286,0,0,0,95.846-.027Zm.682,51.22a24.982,24.982,0,1,1,24.665-25.3A25.007,25.007,0,0,1,96.528,51.193Z" transform="translate(958.043 1288.53)" stroke="#000" stroke-linecap="round" stroke-width="0.4"/>
    <path id="Path_270" data-name="Path 270" d="M283.111,304.495l-1.312-.105v-.315c.472-6.612-7.085-10.391-7.4-10.6l.577-1.155c.315.157,6.3,3.2,7.82,8.659A13.488,13.488,0,0,1,289.513,295l.525,1.207c-5.93,2.677-6.77,7.033-6.927,8.03v.262Z" transform="translate(772.772 1023.578)" stroke="#000" stroke-linecap="round" stroke-width="0.4"/>
    <path id="Path_271" data-name="Path 271" d="M379.516,268.908H379.2a5.375,5.375,0,0,1-4.513-2.519,6.8,6.8,0,0,1-.735-5.563c1.26-3.2,6.455-6.56,14.117-3.936l.525.157-.052.525c-.735,6.35-4.723,11.336-9.027,11.336Zm3.306-11.6c-4.146,0-6.928,2.047-7.662,4.041a5.268,5.268,0,0,0,.63,4.356,4.079,4.079,0,0,0,3.516,1.889c3.621.21,7.085-4.093,7.872-9.6a13.6,13.6,0,0,0-4.356-.682Z" transform="translate(682.822 1056.541)" stroke="#000" stroke-linecap="round" stroke-width="0.4"/>
    <path id="Path_272" data-name="Path 272" d="M181.964,199.147a7.3,7.3,0,0,1-2.047-.262c-5.983-1.364-9.551-9.814-8.029-18.84l.105-.525h.525c6.192-.262,10.234,1.627,12.543,3.254,2.834,1.994,4.671,4.828,4.88,7.5a9.249,9.249,0,0,1-3.1,7.032,7.083,7.083,0,0,1-4.881,1.837Zm-8.869-18.315c-1.207,8.134,1.889,15.586,7.085,16.794a6.211,6.211,0,0,0,5.773-1.26,8.07,8.07,0,0,0,2.676-5.93c-.315-4.093-5.51-9.814-15.534-9.6Z" transform="translate(865.995 1125.829)" stroke="#000" stroke-linecap="round" stroke-width="0.4"/>
  </g>
</svg>
